<svg id="svg" version="1.1" width="400" height="168" xmlns="http://www.w3.org/2000/svg" xmlns:xlink="http://www.w3.org/1999/xlink" style="display: block;"><g id="svgg"><path id="path0" d="M191.886 41.100 C 206.997 63.705,219.364 82.560,219.367 83.000 C 219.371 83.440,207.094 102.204,192.087 124.699 C 177.079 147.193,164.800 165.689,164.800 165.802 C 164.800 165.915,174.201 165.961,185.692 165.904 L 206.583 165.800 234.092 124.614 C 249.221 101.961,261.600 83.286,261.600 83.112 C 261.600 82.939,249.180 64.168,233.999 41.399 L 206.398 0.000 185.404 0.000 L 164.411 0.000 191.886 41.100 M308.494 49.792 C 308.992 50.558,313.180 56.853,317.800 63.781 L 326.200 76.378 363.100 76.389 L 400.000 76.400 400.000 62.400 L 400.000 48.400 353.794 48.400 L 307.588 48.400 308.494 49.792 M335.600 90.201 C 335.600 90.311,339.679 96.521,344.665 104.001 L 353.730 117.600 376.865 117.600 L 400.000 117.600 400.000 103.800 L 400.000 90.000 367.800 90.000 C 350.090 90.000,335.600 90.090,335.600 90.201 " stroke="none" fill="#363636" fill-rule="evenodd"></path><path id="path1" d="M221.742 2.700 C 222.697 4.185,235.116 22.837,249.339 44.148 C 263.563 65.459,275.200 82.967,275.200 83.055 C 275.200 83.142,263.459 100.805,249.108 122.307 C 234.757 143.808,222.341 162.435,221.517 163.700 L 220.017 166.000 240.928 166.000 L 261.838 166.000 266.419 159.137 C 268.939 155.363,276.686 143.753,283.636 133.338 L 296.272 114.402 313.436 140.190 L 330.600 165.978 351.520 165.989 C 369.509 165.998,372.395 165.920,372.120 165.430 C 371.944 165.117,347.050 127.769,316.800 82.435 L 261.800 0.010 240.903 0.005 L 220.005 0.000 221.742 2.700 " stroke="none" fill="#989898" fill-rule="evenodd"></path><path id="path2" d="M46.800 80.684 C 39.968 81.882,35.611 85.460,31.316 93.400 L 30.018 95.800 30.009 89.100 L 30.000 82.400 15.000 82.400 L 0.000 82.400 0.000 124.200 L 0.000 166.000 16.200 166.000 L 32.400 166.000 32.403 148.300 C 32.407 127.200,32.859 121.703,35.105 115.413 C 38.252 106.600,44.087 103.829,53.059 106.887 L 55.918 107.862 56.608 106.431 C 56.988 105.644,58.342 102.570,59.617 99.600 C 60.892 96.630,62.772 92.310,63.795 90.000 C 64.817 87.690,65.739 85.605,65.844 85.367 C 66.013 84.983,62.758 83.312,59.400 82.058 C 55.940 80.766,50.018 80.120,46.800 80.684 M70.893 113.100 L 71.036 143.800 72.103 147.731 C 75.789 161.311,84.751 168.000,99.259 168.000 C 110.636 168.000,118.358 164.659,126.167 156.358 L 129.200 153.134 129.200 159.567 L 129.200 166.000 144.200 166.000 L 159.200 166.000 159.200 124.200 L 159.200 82.400 143.200 82.400 L 127.200 82.400 127.198 104.500 C 127.197 128.404,126.982 131.589,125.096 135.697 C 120.845 144.952,107.971 145.265,104.357 136.200 L 103.400 133.800 103.283 108.100 L 103.167 82.400 86.959 82.400 L 70.751 82.400 70.893 113.100 " stroke="none" fill="#ff3a1d" fill-rule="evenodd"></path></g></svg>
