<?xml version="1.0" encoding="UTF-8" standalone="no"?>
<!DOCTYPE svg PUBLIC "-//W3C//DTD SVG 1.1//EN"
 "http://www.w3.org/Graphics/SVG/1.1/DTD/svg11.dtd">
<!-- Generated by graphviz version 2.40.1 (20161225.0304)
 -->
<!-- Title: %3 Pages: 1 -->
<svg width="242pt" height="152pt"
 viewBox="0.00 0.00 242.00 152.00" xmlns="http://www.w3.org/2000/svg" xmlns:xlink="http://www.w3.org/1999/xlink">
<g id="graph0" class="graph" transform="scale(1 1) rotate(0) translate(4 148)">
<title>%3</title>
<!-- a -->
<g id="node1" class="node">
<title>a</title>
<text text-anchor="start" x="23.8931" y="-68.8" font-family="Times,serif" font-style="italic" font-size="14.00" fill="#000000">a</text>
</g>
<!-- p -->
<g id="node5" class="node">
<title>p</title>
<polygon fill="none" stroke="#000000" points="144,-90 90,-90 90,-54 144,-54 144,-90"/>
<text text-anchor="start" x="113.5" y="-68.8" font-family="Times,serif" font-style="italic" font-size="14.00" fill="#000000">p</text>
</g>
<!-- a&#45;&gt;p -->
<g id="edge1" class="edge">
<title>a&#45;&gt;p</title>
<path fill="none" stroke="#000000" d="M54.003,-72C62.0277,-72 70.9665,-72 79.5309,-72"/>
<polygon fill="#000000" stroke="#000000" points="79.7051,-75.5001 89.705,-72 79.705,-68.5001 79.7051,-75.5001"/>
</g>
<!-- b1 -->
<g id="node2" class="node">
<title>b1</title>
<text text-anchor="start" x="203.5" y="-122.8" font-family="Times,serif" font-style="italic" font-size="14.00" fill="#000000">b</text>
</g>
<!-- b2 -->
<g id="node3" class="node">
<title>b2</title>
<text text-anchor="start" x="203.5" y="-68.8" font-family="Times,serif" font-style="italic" font-size="14.00" fill="#000000">b</text>
</g>
<!-- b3 -->
<g id="node4" class="node">
<title>b3</title>
<text text-anchor="start" x="203.5" y="-14.8" font-family="Times,serif" font-style="italic" font-size="14.00" fill="#000000">b</text>
</g>
<!-- p&#45;&gt;b1 -->
<g id="edge2" class="edge">
<title>p&#45;&gt;b1</title>
<path fill="none" stroke="#000000" d="M144.003,-88.2018C152.4686,-93.2812 161.9516,-98.971 170.9389,-104.3634"/>
<polygon fill="#000000" stroke="#000000" points="169.3293,-107.4792 179.705,-109.623 172.9308,-101.4768 169.3293,-107.4792"/>
</g>
<!-- p&#45;&gt;b2 -->
<g id="edge3" class="edge">
<title>p&#45;&gt;b2</title>
<path fill="none" stroke="#000000" d="M144.003,-72C152.0277,-72 160.9665,-72 169.5309,-72"/>
<polygon fill="#000000" stroke="#000000" points="169.7051,-75.5001 179.705,-72 169.705,-68.5001 169.7051,-75.5001"/>
</g>
<!-- p&#45;&gt;b3 -->
<g id="edge4" class="edge">
<title>p&#45;&gt;b3</title>
<path fill="none" stroke="#000000" d="M144.003,-55.7982C152.4686,-50.7188 161.9516,-45.029 170.9389,-39.6366"/>
<polygon fill="#000000" stroke="#000000" points="172.9308,-42.5232 179.705,-34.377 169.3293,-36.5208 172.9308,-42.5232"/>
</g>
</g>
</svg>
