<?xml version="1.0" encoding="UTF-8" standalone="no"?>
<!DOCTYPE svg PUBLIC "-//W3C//DTD SVG 1.1//EN"
 "http://www.w3.org/Graphics/SVG/1.1/DTD/svg11.dtd">
<!-- Generated by graphviz version 2.38.0 (20140413.2041)
 -->
<!-- Title: %3 Pages: 1 -->
<svg width="314pt" height="98pt"
 viewBox="0.00 0.00 314.14 98.00" xmlns="http://www.w3.org/2000/svg" xmlns:xlink="http://www.w3.org/1999/xlink">
<g id="graph0" class="graph" transform="scale(1 1) rotate(0) translate(4 94)">
<title>%3</title>
<!-- a -->
<g id="node1" class="node"><title>a</title>
<text text-anchor="start" x="23.5" y="-42.3" font-family="Times,serif" font-style="italic" font-size="14.00">a</text>
</g>
<!-- p -->
<g id="node4" class="node"><title>p</title>
<polygon fill="none" stroke="black" points="144,-63 90,-63 90,-27 144,-27 144,-63"/>
<text text-anchor="start" x="113.5" y="-42.3" font-family="Times,serif" font-style="italic" font-size="14.00">p</text>
</g>
<!-- a&#45;&gt;p -->
<g id="edge1" class="edge"><title>a&#45;&gt;p</title>
<path fill="none" stroke="black" d="M54.4029,-45C62.3932,-45 71.3106,-45 79.8241,-45"/>
<polygon fill="black" stroke="black" points="79.919,-48.5001 89.919,-45 79.919,-41.5001 79.919,-48.5001"/>
</g>
<!-- b -->
<g id="node2" class="node"><title>b</title>
<text text-anchor="start" x="275.644" y="-69.3" font-family="Times,serif" font-style="italic" font-size="14.00">b</text>
</g>
<!-- btm -->
<g id="node3" class="node"><title>btm</title>
</g>
<!-- pOut -->
<g id="node5" class="node"><title>pOut</title>
<ellipse fill="black" stroke="black" cx="180.036" cy="-45" rx="0.036" ry="0.036"/>
</g>
<!-- p&#45;&gt;pOut -->
<g id="edge2" class="edge"><title>p&#45;&gt;pOut</title>
<path fill="none" stroke="black" d="M144.294,-45C160.664,-45 178.826,-45 179.946,-45"/>
</g>
<!-- bIn -->
<g id="node6" class="node"><title>bIn</title>
<ellipse fill="black" stroke="black" cx="216.108" cy="-72" rx="0.036" ry="0.036"/>
</g>
<!-- pOut&#45;&gt;bIn -->
<g id="edge3" class="edge"><title>pOut:e&#45;&gt;bIn:w</title>
<path fill="none" stroke="black" d="M180.072,-45C200.072,-45 196.072,-72 216.072,-72"/>
</g>
<!-- btmIn -->
<g id="node7" class="node"><title>btmIn</title>
<ellipse fill="black" stroke="black" cx="216.108" cy="-18" rx="0.036" ry="0.036"/>
</g>
<!-- pOut&#45;&gt;btmIn -->
<g id="edge4" class="edge"><title>pOut:e&#45;&gt;btmIn:w</title>
<path fill="none" stroke="black" d="M180.072,-45C200.072,-45 196.072,-18 216.072,-18"/>
</g>
<!-- bIn&#45;&gt;b -->
<g id="edge5" class="edge"><title>bIn&#45;&gt;b</title>
<path fill="none" stroke="black" d="M216.189,-72C217.007,-72 228.878,-72 242.014,-72"/>
<polygon fill="black" stroke="black" points="242.142,-75.5001 252.142,-72 242.142,-68.5001 242.142,-75.5001"/>
</g>
<!-- btmIn&#45;&gt;btm -->
<g id="edge6" class="edge"><title>btmIn&#45;&gt;btm</title>
<path fill="none" stroke="black" d="M216.189,-18C217.111,-18 232.084,-18 247.077,-18"/>
<polygon fill="black" stroke="black" points="251.142,-13 251.142,-23 249.142,-23.0001 249.142,-13.0001 251.142,-13"/>
<polyline fill="none" stroke="black" points="252.142,-18 247.142,-18.0001 "/>
</g>
</g>
</svg>
