<?xml version="1.0" encoding="UTF-8" standalone="no"?>
<!DOCTYPE svg PUBLIC "-//W3C//DTD SVG 1.1//EN"
 "http://www.w3.org/Graphics/SVG/1.1/DTD/svg11.dtd">
<!-- Generated by graphviz version 2.38.0 (20140413.2041)
 -->
<!-- Title: %3 Pages: 1 -->
<svg width="245pt" height="98pt"
 viewBox="0.00 0.00 245.49 98.00" xmlns="http://www.w3.org/2000/svg" xmlns:xlink="http://www.w3.org/1999/xlink">
<g id="graph0" class="graph" transform="scale(1 1) rotate(0) translate(4 94)">
<title>%3</title>
<!-- a -->
<g id="node1" class="node"><title>a</title>
<text text-anchor="start" x="23.5" y="-69.3" font-family="Times,serif" font-style="italic" font-size="14.00">a</text>
</g>
<!-- p -->
<g id="node3" class="node"><title>p</title>
<polygon fill="none" stroke="black" points="144,-90 90,-90 90,-54 144,-54 144,-90"/>
<text text-anchor="start" x="113.5" y="-69.3" font-family="Times,serif" font-style="italic" font-size="14.00">p</text>
</g>
<!-- a&#45;&gt;p -->
<g id="edge1" class="edge"><title>a&#45;&gt;p</title>
<path fill="none" stroke="black" d="M54.4029,-72C62.3932,-72 71.3106,-72 79.8241,-72"/>
<polygon fill="black" stroke="black" points="79.919,-75.5001 89.919,-72 79.919,-68.5001 79.919,-75.5001"/>
</g>
<!-- b -->
<g id="node2" class="node"><title>b</title>
<text text-anchor="start" x="205.243" y="-69.3" font-family="Times,serif" font-style="italic" font-size="14.00">b</text>
</g>
<!-- p&#45;&gt;b -->
<g id="edge2" class="edge"><title>p&#45;&gt;b</title>
<path fill="none" stroke="black" d="M144.441,-72C152.839,-72 162.28,-72 171.257,-72"/>
<polygon fill="black" stroke="black" points="171.492,-75.5001 181.492,-72 171.492,-68.5001 171.492,-75.5001"/>
</g>
<!-- w -->
<g id="node4" class="node"><title>w</title>
<polygon fill="none" stroke="black" points="211.426,-0.0493367 213.202,-0.147875 214.96,-0.295345 216.692,-0.491342 218.391,-0.735329 220.052,-1.02664 221.666,-1.36447 223.228,-1.7479 224.732,-2.17587 226.172,-2.64722 227.543,-3.16064 228.841,-3.71474 230.061,-4.308 231.198,-4.93879 232.251,-5.60537 233.215,-6.30593 234.089,-7.03854 234.87,-7.80119 235.558,-8.5918 236.151,-9.4082 236.649,-10.2481 237.052,-11.1093 237.361,-11.9894 237.576,-12.886 237.699,-13.7965 237.732,-14.7186 237.678,-15.6497 237.537,-16.5873 237.315,-17.5287 237.012,-18.4713 236.633,-19.4127 236.182,-20.3503 235.662,-21.2814 235.076,-22.2035 234.429,-23.114 233.724,-24.0106 232.966,-24.8907 232.158,-25.7519 231.305,-26.5918 230.409,-27.4082 229.476,-28.1988 228.507,-28.9615 227.508,-29.6941 226.48,-30.3946 225.428,-31.0612 224.353,-31.692 223.26,-32.2853 222.149,-32.8394 221.024,-33.3528 219.886,-33.8241 218.737,-34.2521 217.58,-34.6355 216.415,-34.9734 215.244,-35.2647 214.069,-35.5087 212.889,-35.7047 211.706,-35.8521 210.522,-35.9507 209.336,-36 208.15,-36 206.965,-35.9507 205.78,-35.8521 204.598,-35.7047 203.418,-35.5087 202.243,-35.2647 201.072,-34.9734 199.907,-34.6355 198.75,-34.2521 197.601,-33.8241 196.463,-33.3528 195.338,-32.8394 194.227,-32.2853 193.134,-31.692 192.059,-31.0612 191.007,-30.3946 189.979,-29.6941 188.98,-28.9615 188.011,-28.1988 187.078,-27.4082 186.182,-26.5918 185.329,-25.7519 184.521,-24.8907 183.763,-24.0106 183.058,-23.114 182.411,-22.2035 181.825,-21.2814 181.305,-20.3503 180.853,-19.4127 180.475,-18.4713 180.172,-17.5287 179.949,-16.5873 179.809,-15.6497 179.754,-14.7186 179.788,-13.7965 179.911,-12.886 180.126,-11.9894 180.435,-11.1093 180.838,-10.2481 181.336,-9.4082 181.929,-8.5918 182.617,-7.80119 183.398,-7.03854 184.272,-6.30593 185.236,-5.60537 186.289,-4.93879 187.426,-4.308 188.646,-3.71474 189.943,-3.16064 191.315,-2.64722 192.755,-2.17587 194.259,-1.7479 195.821,-1.36447 197.435,-1.02664 199.095,-0.735329 200.795,-0.491342 202.527,-0.295345 204.285,-0.147875 206.061,-0.0493367 207.848,-1.81188e-13 209.639,-1.84741e-13 211.426,-0.0493367"/>
<text text-anchor="start" x="203.743" y="-15.3" font-family="Times,serif" font-style="italic" font-size="14.00">w</text>
</g>
<!-- p&#45;&gt;w -->
<g id="edge3" class="edge"><title>p&#45;&gt;w</title>
<path fill="none" stroke="black" stroke-dasharray="5,2" d="M144.441,-56.0903C155.782,-49.2659 169.025,-41.2973 180.459,-34.4177"/>
<polygon fill="black" stroke="black" points="182.405,-37.3313 189.169,-29.1765 178.796,-31.3334 182.405,-37.3313"/>
</g>
</g>
</svg>
