<?xml version="1.0" encoding="UTF-8" standalone="no"?>
<!DOCTYPE svg PUBLIC "-//W3C//DTD SVG 1.1//EN"
 "http://www.w3.org/Graphics/SVG/1.1/DTD/svg11.dtd">
<!-- Generated by graphviz version 2.38.0 (20140413.2041)
 -->
<!-- Title: %3 Pages: 1 -->
<svg width="245pt" height="98pt"
 viewBox="0.00 0.00 245.49 98.00" xmlns="http://www.w3.org/2000/svg" xmlns:xlink="http://www.w3.org/1999/xlink">
<g id="graph0" class="graph" transform="scale(1 1) rotate(0) translate(4 94)">
<title>%3</title>
<!-- a -->
<g id="node1" class="node"><title>a</title>
<text text-anchor="start" x="23.5" y="-15.3" font-family="Times,serif" font-style="italic" font-size="14.00">a</text>
</g>
<!-- p -->
<g id="node3" class="node"><title>p</title>
<polygon fill="none" stroke="black" points="145.743,-36 91.7434,-36 91.7434,-0 145.743,-0 145.743,-36"/>
<text text-anchor="start" x="115.243" y="-15.3" font-family="Times,serif" font-style="italic" font-size="14.00">p</text>
</g>
<!-- a&#45;&gt;p -->
<g id="edge3" class="edge"><title>a&#45;&gt;p</title>
<path fill="none" stroke="black" d="M54.4406,-18C62.8392,-18 72.2804,-18 81.2573,-18"/>
<polygon fill="black" stroke="black" points="81.4919,-21.5001 91.4918,-18 81.4918,-14.5001 81.4919,-21.5001"/>
</g>
<!-- b -->
<g id="node2" class="node"><title>b</title>
<text text-anchor="start" x="206.987" y="-15.3" font-family="Times,serif" font-style="italic" font-size="14.00">b</text>
</g>
<!-- p&#45;&gt;b -->
<g id="edge1" class="edge"><title>p&#45;&gt;b</title>
<path fill="none" stroke="black" d="M146.184,-18C154.583,-18 164.024,-18 173.001,-18"/>
<polygon fill="black" stroke="black" points="173.235,-21.5001 183.235,-18 173.235,-14.5001 173.235,-21.5001"/>
</g>
<!-- s -->
<g id="node4" class="node"><title>s</title>
<polygon fill="none" stroke="black" points="121.426,-54.0493 123.202,-54.1479 124.96,-54.2953 126.692,-54.4913 128.391,-54.7353 130.052,-55.0266 131.666,-55.3645 133.228,-55.7479 134.732,-56.1759 136.172,-56.6472 137.543,-57.1606 138.841,-57.7147 140.061,-58.308 141.198,-58.9388 142.251,-59.6054 143.215,-60.3059 144.089,-61.0385 144.87,-61.8012 145.558,-62.5918 146.151,-63.4082 146.649,-64.2481 147.052,-65.1093 147.361,-65.9894 147.576,-66.886 147.699,-67.7965 147.732,-68.7186 147.678,-69.6497 147.537,-70.5873 147.315,-71.5287 147.012,-72.4713 146.633,-73.4127 146.182,-74.3503 145.662,-75.2814 145.076,-76.2035 144.429,-77.114 143.724,-78.0106 142.966,-78.8907 142.158,-79.7519 141.305,-80.5918 140.409,-81.4082 139.476,-82.1988 138.507,-82.9615 137.508,-83.6941 136.48,-84.3946 135.428,-85.0612 134.353,-85.692 133.26,-86.2853 132.149,-86.8394 131.024,-87.3528 129.886,-87.8241 128.737,-88.2521 127.58,-88.6355 126.415,-88.9734 125.244,-89.2647 124.069,-89.5087 122.889,-89.7047 121.706,-89.8521 120.522,-89.9507 119.336,-90 118.15,-90 116.965,-89.9507 115.78,-89.8521 114.598,-89.7047 113.418,-89.5087 112.243,-89.2647 111.072,-88.9734 109.907,-88.6355 108.75,-88.2521 107.601,-87.8241 106.463,-87.3528 105.338,-86.8394 104.227,-86.2853 103.134,-85.692 102.059,-85.0612 101.007,-84.3946 99.9791,-83.6941 98.9795,-82.9615 98.0112,-82.1988 97.0775,-81.4082 96.1821,-80.5918 95.3286,-79.7519 94.5209,-78.8907 93.7628,-78.0106 93.0582,-77.114 92.411,-76.2035 91.8253,-75.2814 91.3048,-74.3503 90.8534,-73.4127 90.4748,-72.4713 90.1724,-71.5287 89.9495,-70.5873 89.8093,-69.6497 89.7545,-68.7186 89.7877,-67.7965 89.911,-66.886 90.1263,-65.9894 90.4349,-65.1093 90.8379,-64.2481 91.3359,-63.4082 91.9289,-62.5918 92.6165,-61.8012 93.3979,-61.0385 94.2717,-60.3059 95.2361,-59.6054 96.2885,-58.9388 97.4262,-58.308 98.6458,-57.7147 99.9434,-57.1606 101.315,-56.6472 102.755,-56.1759 104.259,-55.7479 105.821,-55.3645 107.435,-55.0266 109.095,-54.7353 110.795,-54.4913 112.527,-54.2953 114.285,-54.1479 116.061,-54.0493 117.848,-54 119.639,-54 121.426,-54.0493"/>
<text text-anchor="start" x="115.743" y="-69.3" font-family="Times,serif" font-style="italic" font-size="14.00">s</text>
</g>
<!-- p&#45;&gt;s -->
<g id="edge2" class="edge"><title>p&#45;&gt;s</title>
<path fill="none" stroke="black" d="M136.813,-36.1406C138.571,-39.7126 139.266,-43.2845 138.898,-46.8564"/>
<polygon fill="black" stroke="black" points="135.587,-45.7177 135.439,-56.3115 142.162,-48.1224 135.587,-45.7177"/>
</g>
<!-- s&#45;&gt;p -->
<g id="edge4" class="edge"><title>s&#45;&gt;p</title>
<path fill="none" stroke="black" d="M102.048,-56.3115C99.869,-52.8447 98.6919,-49.3778 98.5165,-45.9109"/>
<polygon fill="black" stroke="black" points="101.935,-46.6601 100.674,-36.1406 95.0999,-45.1508 101.935,-46.6601"/>
</g>
</g>
</svg>
