<?xml version="1.0" encoding="UTF-8" standalone="no"?>
<!DOCTYPE svg PUBLIC "-//W3C//DTD SVG 1.1//EN"
 "http://www.w3.org/Graphics/SVG/1.1/DTD/svg11.dtd">
<!-- Generated by graphviz version 2.38.0 (20140413.2041)
 -->
<!-- Title: %3 Pages: 1 -->
<svg width="242pt" height="62pt"
 viewBox="0.00 0.00 242.00 62.35" xmlns="http://www.w3.org/2000/svg" xmlns:xlink="http://www.w3.org/1999/xlink">
<g id="graph0" class="graph" transform="scale(1 1) rotate(0) translate(4 58.3495)">
<title>%3</title>
<!-- a -->
<g id="node1" class="node"><title>a</title>
<text text-anchor="start" x="23.5" y="-24.4747" font-family="Times,serif" font-style="italic" font-size="14.00">a</text>
</g>
<!-- p -->
<g id="node3" class="node"><title>p</title>
<polygon fill="none" stroke="black" points="144,-45.1747 90,-45.1747 90,-9.17474 144,-9.17474 144,-45.1747"/>
<text text-anchor="start" x="113.5" y="-24.4747" font-family="Times,serif" font-style="italic" font-size="14.00">p</text>
</g>
<!-- a&#45;&gt;p -->
<g id="edge1" class="edge"><title>a&#45;&gt;p</title>
<path fill="none" stroke="black" d="M54.4029,-27.1747C62.3932,-27.1747 71.3106,-27.1747 79.8241,-27.1747"/>
<polygon fill="black" stroke="black" points="79.919,-30.6748 89.919,-27.1747 79.919,-23.6748 79.919,-30.6748"/>
</g>
<!-- b -->
<g id="node2" class="node"><title>b</title>
<text text-anchor="start" x="203.5" y="-24.4747" font-family="Times,serif" font-style="italic" font-size="14.00">b</text>
</g>
<!-- p&#45;&gt;b -->
<g id="edge2" class="edge"><title>p&#45;&gt;b</title>
<path fill="none" stroke="black" d="M128.44,-8.95666C142.807,0.978772 168.927,2.48386 186.855,-4.4414"/>
<polygon fill="black" stroke="black" points="185.363,-7.61139 195.845,-9.15609 188.614,-1.41211 185.363,-7.61139"/>
</g>
<!-- p&#45;&gt;b -->
<g id="edge3" class="edge"><title>p&#45;&gt;b</title>
<path fill="none" stroke="black" d="M144.403,-14.6841C152.393,-13.7181 161.311,-13.4455 169.824,-13.8663"/>
<polygon fill="black" stroke="black" points="169.659,-17.3647 179.919,-14.7235 170.251,-10.3898 169.659,-17.3647"/>
</g>
<!-- p&#45;&gt;b -->
<g id="edge4" class="edge"><title>p&#45;&gt;b</title>
<path fill="none" stroke="black" d="M144.403,-27.1747C152.393,-27.1747 161.311,-27.1747 169.824,-27.1747"/>
<polygon fill="black" stroke="black" points="169.919,-30.6748 179.919,-27.1747 169.919,-23.6748 169.919,-30.6748"/>
</g>
<!-- p&#45;&gt;b -->
<g id="edge5" class="edge"><title>p&#45;&gt;b</title>
<path fill="none" stroke="black" d="M144.403,-39.6654C152.393,-40.6314 161.311,-40.904 169.824,-40.4832"/>
<polygon fill="black" stroke="black" points="170.251,-43.9597 179.919,-39.626 169.659,-36.9848 170.251,-43.9597"/>
</g>
<!-- p&#45;&gt;b -->
<g id="edge6" class="edge"><title>p&#45;&gt;b</title>
<path fill="none" stroke="black" d="M128.44,-45.3928C142.807,-55.3283 168.927,-56.8333 186.855,-49.9081"/>
<polygon fill="black" stroke="black" points="188.614,-52.9374 195.845,-45.1934 185.363,-46.7381 188.614,-52.9374"/>
</g>
</g>
</svg>
