<?xml version="1.0" encoding="UTF-8" standalone="no"?>
<!DOCTYPE svg PUBLIC "-//W3C//DTD SVG 1.1//EN"
 "http://www.w3.org/Graphics/SVG/1.1/DTD/svg11.dtd">
<!-- Generated by graphviz version 2.40.1 (20161225.0304)
 -->
<!-- Title: %3 Pages: 1 -->
<svg width="278pt" height="44pt"
 viewBox="0.00 0.00 278.07 44.00" xmlns="http://www.w3.org/2000/svg" xmlns:xlink="http://www.w3.org/1999/xlink">
<g id="graph0" class="graph" transform="scale(1 1) rotate(0) translate(4 40)">
<title>%3</title>
<!-- a -->
<g id="node1" class="node">
<title>a</title>
<text text-anchor="start" x="23.8931" y="-14.8" font-family="Times,serif" font-style="italic" font-size="14.00" fill="#000000">a</text>
</g>
<!-- p -->
<g id="node3" class="node">
<title>p</title>
<polygon fill="none" stroke="#000000" points="144,-36 90,-36 90,0 144,0 144,-36"/>
<text text-anchor="start" x="113.5" y="-14.8" font-family="Times,serif" font-style="italic" font-size="14.00" fill="#000000">p</text>
</g>
<!-- a&#45;&gt;p -->
<g id="edge1" class="edge">
<title>a&#45;&gt;p</title>
<path fill="none" stroke="#000000" d="M54.003,-18C62.0277,-18 70.9665,-18 79.5309,-18"/>
<polygon fill="#000000" stroke="#000000" points="79.7051,-21.5001 89.705,-18 79.705,-14.5001 79.7051,-21.5001"/>
</g>
<!-- b -->
<g id="node2" class="node">
<title>b</title>
<text text-anchor="start" x="239.572" y="-14.8" font-family="Times,serif" font-style="italic" font-size="14.00" fill="#000000">b</text>
</g>
<!-- pOut -->
<g id="node4" class="node">
<title>pOut</title>
<ellipse fill="#000000" stroke="#000000" cx="180.036" cy="-18" rx=".036" ry=".036"/>
</g>
<!-- p&#45;&gt;pOut -->
<g id="edge2" class="edge">
<title>p&#45;&gt;pOut</title>
<path fill="none" stroke="#000000" d="M144.0988,-18C160.6498,-18 178.8595,-18 179.9814,-18"/>
</g>
<!-- pOut&#45;&gt;b -->
<g id="edge3" class="edge">
<title>pOut:e&#45;&gt;b</title>
<path fill="none" stroke="#000000" d="M180.036,-18C188.3609,-12.6513 197.3043,-8.892 205.7635,-6.722"/>
<polygon fill="#000000" stroke="#000000" points="206.5752,-10.1312 215.7677,-4.8634 205.2966,-3.2489 206.5752,-10.1312"/>
</g>
<!-- pOut&#45;&gt;b -->
<g id="edge4" class="edge">
<title>pOut:e&#45;&gt;b</title>
<path fill="none" stroke="#000000" d="M180.036,-18C188.3609,-18 197.3043,-18 205.7635,-18"/>
<polygon fill="#000000" stroke="#000000" points="205.7677,-21.5001 215.7677,-18 205.7676,-14.5001 205.7677,-21.5001"/>
</g>
<!-- pOut&#45;&gt;b -->
<g id="edge5" class="edge">
<title>pOut:e&#45;&gt;b</title>
<path fill="none" stroke="#000000" d="M180.036,-18C188.3609,-23.3487 197.3043,-27.108 205.7635,-29.278"/>
<polygon fill="#000000" stroke="#000000" points="205.2966,-32.7511 215.7677,-31.1366 206.5752,-25.8688 205.2966,-32.7511"/>
</g>
</g>
</svg>
