<?xml version="1.0" encoding="UTF-8" standalone="no"?>
<!DOCTYPE svg PUBLIC "-//W3C//DTD SVG 1.1//EN"
 "http://www.w3.org/Graphics/SVG/1.1/DTD/svg11.dtd">
<!-- Generated by graphviz version 2.38.0 (20140413.2041)
 -->
<!-- Title: %3 Pages: 1 -->
<svg width="242pt" height="98pt"
 viewBox="0.00 0.00 242.00 98.00" xmlns="http://www.w3.org/2000/svg" xmlns:xlink="http://www.w3.org/1999/xlink">
<g id="graph0" class="graph" transform="scale(1 1) rotate(0) translate(4 94)">
<title>%3</title>
<!-- a -->
<g id="node1" class="node"><title>a</title>
<text text-anchor="start" x="23.5" y="-69.3" font-family="Times,serif" font-style="italic" font-size="14.00">a</text>
</g>
<!-- p -->
<g id="node3" class="node"><title>p</title>
<polygon fill="none" stroke="black" points="144,-90 90,-90 90,-54 144,-54 144,-90"/>
<text text-anchor="start" x="113.5" y="-69.3" font-family="Times,serif" font-style="italic" font-size="14.00">p</text>
</g>
<!-- a&#45;&gt;p -->
<g id="edge1" class="edge"><title>a&#45;&gt;p</title>
<path fill="none" stroke="black" d="M54.4029,-72C62.3932,-72 71.3106,-72 79.8241,-72"/>
<polygon fill="black" stroke="black" points="79.919,-75.5001 89.919,-72 79.919,-68.5001 79.919,-75.5001"/>
</g>
<!-- b -->
<g id="node2" class="node"><title>b</title>
<text text-anchor="start" x="203.5" y="-69.3" font-family="Times,serif" font-style="italic" font-size="14.00">b</text>
</g>
<!-- p&#45;&gt;b -->
<g id="edge2" class="edge"><title>p&#45;&gt;b</title>
<path fill="none" stroke="black" d="M144.403,-72C152.393,-72 161.311,-72 169.824,-72"/>
<polygon fill="black" stroke="black" points="169.919,-75.5001 179.919,-72 169.919,-68.5001 169.919,-75.5001"/>
</g>
<!-- r -->
<g id="node4" class="node"><title>r</title>
<text text-anchor="start" x="24" y="-15.3" font-family="Times,serif" font-style="italic" font-size="14.00">r</text>
</g>
<!-- r&#45;&gt;p -->
<g id="edge3" class="edge"><title>r&#45;&gt;p</title>
<path fill="none" stroke="black" d="M54.4029,-34.2018C62.8323,-39.3743 72.2933,-45.18 81.2235,-50.6599"/>
<polygon fill="black" stroke="black" points="79.5652,-53.7487 89.919,-55.9957 83.2263,-47.7824 79.5652,-53.7487"/>
</g>
</g>
</svg>
